<svg width="59" height="59" xmlns="http://www.w3.org/2000/svg">

 <g>
  <title>Layer 1</title>
  <path id="svg_1" d="m52.11291,32.287l-0.863,-0.86c-2.062,-2.054 -5.433,-2.5 -7.95,-1.06l-5.376,3.059l1.12,-24.502c0,-2.054 -1.678,-3.726 -3.743,-3.726c-0.446,0 -0.875,0.079 -1.273,0.222l0.134,-1.315c0,-2.077 -1.705,-3.767 -3.798,-3.767c-1.936,0 -3.559,1.445 -3.764,3.299l-3.45,20.75c-0.045,0.282 -0.536,0.253 -0.588,0.075l-4.075,-16.635a3.658,3.658 0 0 0 -3.502,-2.629c-1.118,0 -2.157,0.501 -2.853,1.375a3.592,3.592 0 0 0 -0.69,3.08l0.792,3.35a3.34,3.34 0 0 0 -1.335,0.168a3.447,3.447 0 0 0 -2.326,3.818l2.398,13.726c0,5.415 0.953,9.423 1.754,11.83a13.61,13.61 0 0 1 0.687,4.291c0,1.284 -0.179,2.562 -0.534,3.796l-1.86,6.482c-0.104,0.366 -0.03,0.76 0.198,1.065c0.232,0.304 0.592,0.483 0.975,0.483l21.97,0a1.218,1.218 0 0 0 1.16,-1.6c-0.013,-0.031 -1.033,-3.169 -0.067,-7.437c1.225,-0.99 5.514,-4.462 7.054,-5.862c2.546,-2.315 9.521,-9.468 9.817,-9.772a1.21,1.21 0 0 0 -0.012,-1.705l0,0.001z" fill="#3B4262"/>
 </g>
</svg>