<svg width="59" height="59" xmlns="http://www.w3.org/2000/svg">

 <g>
  <title>Layer 1</title>
  <path id="svg_1" d="m50.79585,18.17608c-0.642,-8.096 -9.734,-7.269 -9.734,-7.269c-3.837,-6.765 -9.832,-1.865 -9.832,-1.865c-4.606,-6.63 -10.38,-0.486 -10.38,-0.486c-9.957,-1.074 -9.571,7.066 -9.571,7.066c-0.234,2.588 1.403,10.593 1.403,10.593c-1.477,-4.614 -4.68,-0.784 -4.68,-0.784c-3.94,6.078 -0.975,9.405 -0.975,9.405c5.33,6.246 16.688,13.743 16.688,13.743c4.113,2.356 2.373,4.457 2.373,4.457l24.876,-4.11l0.571,-4.718c3.782,-11.436 -0.739,-26.032 -0.739,-26.032z" fill="#3B4262"/>
 </g>
</svg>