<svg width="59" height="59" xmlns="http://www.w3.org/2000/svg">

 <g>
  <title>Layer 1</title>
  <path id="svg_1" d="m51.92155,12.096a2.922,2.922 0 0 0 -1.232,-0.198c-0.57,0.04 -1.029,0.271 -1.302,0.65c-1.604,2.248 -2.919,6.493 -3.979,9.905c-0.486,1.577 -1.14,3.688 -1.612,4.69c-0.493,-2.807 0.064,-13.09 0.28,-17.05l0.003,-0.064c0.15,-2.751 0.17,-3.234 0.138,-3.446c-0.238,-1.509 -0.843,-2.5 -1.799,-2.943c-0.966,-0.45 -2.22,-0.25 -3.572,0.563c-0.677,0.41 -0.865,1.816 -1.446,8.19l-0.002,0.028c-0.32,3.502 -1.058,11.566 -1.965,12.91c-1.023,-1.88 -2.431,-12.555 -3.039,-17.176c-0.425,-3.236 -0.673,-5.094 -0.84,-5.655c-0.35,-1.176 -1.83,-2.176 -3.295,-2.232c-1.22,-0.06 -2.22,0.56 -2.698,1.638c-0.894,0.995 -0.578,4.292 0.41,12.102c0.47,3.718 1.44,11.395 0.83,12.257c-1.219,-0.133 -3.31,-4.942 -6.215,-14.299c-0.816,-2.62 -1.068,-3.408 -1.318,-3.753c-0.494,-1.202 -2.172,-2.129 -3.676,-2.024a3.183,3.183 0 0 0 -0.377,0.049c-0.787,0.156 -2.584,0.881 -2.2,4.226c1.06,4.637 2.213,8.041 3.331,11.346l0.023,0.066c0.669,1.98 1.302,3.85 1.89,5.925c1.385,4.9 0.846,7.94 0.84,7.975c-0.046,0.312 -0.143,0.503 -0.288,0.57a0.556,0.556 0 0 1 -0.195,0.045c-0.44,0.03 -1.098,-0.26 -1.437,-0.45c-0.776,-1.482 -4.636,-8.544 -8.134,-9.524l-0.126,-0.037l-0.127,0.012c-1.283,0.121 -2.226,0.606 -2.803,1.441c-0.914,1.32 -0.535,3.002 -0.444,3.34l0.052,0.12c0.028,0.051 2.834,5.165 3.268,7.544c0.374,2.04 2.311,4.25 3.869,6.026l0.064,0.073c0.508,0.58 0.946,1.083 1.292,1.548c4.519,4.713 11.665,8.677 11.723,8.71c0.892,0.657 1.387,1.293 1.44,1.84a0.798,0.798 0 0 1 -0.16,0.58l-0.155,0.162l0.988,0.96l18.853,-1.324l0.804,-3.684c2.486,-10.402 1.967,-19.272 1.958,-19.33c0.01,-0.327 0.706,-3.483 1.266,-6.033l0.017,-0.065c1.117,-5.08 2.505,-11.4 2.772,-13.803c0.116,-1.028 -0.542,-1.972 -1.675,-2.401z" fill="#3B4262"/>
 </g>
</svg>