<svg width="63" height="60" xmlns="http://www.w3.org/2000/svg">

 <g>
  <title>Layer 1</title>
  <path id="svg_1" d="m49.48349,2.00259c3.229,-2 6.324,-2.433 8.714,-1.219c5.359,2.72 4.583,12.845 2.39,17.232c-1.238,2.477 -3.432,4.287 -6.527,5.387c-1.2,3.799 -2.884,7.064 -5.034,9.764a7.904,7.904 0 0 0 5.079,1.837l0.09,0l3.02,-2.982c0.761,-0.75 1.994,-0.751 2.754,0c0.76,0.75 0.76,1.968 0,2.718l-0.267,0.264l0.608,0c1.075,0 1.947,0.861 1.947,1.923c0,1.061 -0.872,1.922 -1.947,1.922l-0.608,0l0.267,0.264c0.76,0.75 0.76,1.968 0,2.719c-0.38,0.375 -0.878,0.563 -1.376,0.563c-0.499,0 -0.997,-0.188 -1.377,-0.563l-3.022,-2.983l-0.09,0a11.823,11.823 0 0 1 -7.724,-2.857c-0.415,0.377 -0.843,0.738 -1.284,1.083c-3.732,2.92 -8.294,4.617 -13.627,5.082a12.08,12.08 0 0 1 0.343,6.352l-0.02,0.09l2.325,3.66a1.998,1.998 0 0 1 -0.589,2.741a1.936,1.936 0 0 1 -1.057,0.316a1.953,1.953 0 0 1 -1.651,-0.912l-0.206,-0.324l-0.13,0.605a1.966,1.966 0 0 1 -1.913,1.562a1.95,1.95 0 0 1 -0.419,-0.046a1.984,1.984 0 0 1 -1.498,-2.36l0.13,-0.605l-0.32,0.209a1.946,1.946 0 0 1 -2.709,-0.597a1.998,1.998 0 0 1 0.59,-2.74l3.617,-2.353l0.02,-0.09a8.073,8.073 0 0 0 -0.713,-5.394a44.773,44.773 0 0 1 -4.797,-0.4c-4.684,-0.634 -7.341,1.433 -8.044,2.081c-5.518,5.093 -6.586,14.092 -6.596,14.183a1.977,1.977 0 0 1 -1.96,1.757a1.97,1.97 0 0 1 -1.63,-0.867c-0.087,-0.13 -2.164,-3.234 -3.075,-7.615c-1.237,-5.95 0.238,-11.407 4.266,-15.783a20.702,20.702 0 0 1 8.738,-5.615l-0.407,0.106a7.99,7.99 0 0 0 -3.375,-0.747l-0.09,0l-3.032,2.983a1.965,1.965 0 0 1 -1.382,0.563c-0.5,0 -1,-0.188 -1.382,-0.563a1.9,1.9 0 0 1 0,-2.719l0.268,-0.264l-0.61,0c-1.08,0 -1.954,-0.86 -1.954,-1.922c0,-1.062 0.875,-1.922 1.954,-1.922l0.61,0l-0.268,-0.264a1.9,1.9 0 0 1 0,-2.72c0.763,-0.75 2,-0.75 2.764,0l3.032,2.983l0.09,0a11.87,11.87 0 0 1 8.661,3.726l-0.217,-0.223a22.914,22.914 0 0 1 5.352,0.095c4.946,0.67 8.99,-0.018 12.113,-2.052a12.215,12.215 0 0 1 -2.71,-7.7l0,-0.092l-2.988,-3.086a2.034,2.034 0 0 1 0,-2.812a1.885,1.885 0 0 1 2.725,0l0.265,0.273l0,-0.621c0,-1.099 0.862,-1.989 1.926,-1.989s1.927,0.89 1.927,1.989l0,0.62l0.265,-0.272a1.885,1.885 0 0 1 2.725,0c1.146,1.183 0.32,2.483 0,2.812l-2.99,3.086l0,0.091c0,1.878 0.635,3.673 1.771,5.098c1.412,-1.686 2.522,-3.808 3.325,-6.36c-0.587,-1.625 -1.5,-5.473 0.828,-9.837c1.22,-2.285 3.564,-4.687 6.117,-6.269l-0.001,0z" fill="#3B4262"/>
 </g>
</svg>