<svg width="58" height="58" xmlns="http://www.w3.org/2000/svg">

 <g>
  <title>Layer 1</title>
  <path id="svg_1" d="m17.36769,25.98516l6.012,-8.415c-2.499,-0.415 -7.088,-0.507 -10.846,3.235c-5.925,5.899 -8.325,18.641 -8.825,21.726l15.058,14.992c2.711,-0.232 14.713,-1.827 26.279,-13.34c0.122,-0.249 2.94,-2.321 0.636,-4.614c-1.1,-1.095 -2.919,-1.074 -4.042,0.044c-0.572,0.57 -1.461,0.577 -2.021,0.02c-0.56,-0.557 -0.552,-1.443 0.02,-2.012l4.087,-4.069c2.076,-2.067 0.119,-5.555 -2.78,-4.717l-3.345,2.851c-0.611,0.53 -1.52,0.439 -2.022,-0.14c-0.519,-0.597 -0.408,-1.503 0.183,-2.013c11.687,-10.208 9.98,-8.979 17.5,-15.995c2.809,-2.329 -0.725,-6.447 -3.493,-4.09l-18.19,16.285c-0.529,0.448 -1.34,0.457 -1.86,-0.02c-0.601,-0.517 -0.615,-1.262 -0.222,-1.85l12.687,-19.636c1.854,-2.5 -1.795,-5.277 -3.749,-2.757l-18.758,26.12c-0.452,0.65 -1.364,0.8 -1.985,0.345a1.377,1.377 0 0 1 -0.323,-1.95l-0.001,0z" fill="#3B4262"/>
 </g>
</svg>